<?xml version="1.0" encoding="utf-8"?>
<!-- Svg Vector Icons : http://www.onlinewebfonts.com/icon -->
<!DOCTYPE svg PUBLIC "-//W3C//DTD SVG 1.1//EN" "http://www.w3.org/Graphics/SVG/1.1/DTD/svg11.dtd">
<svg version="1.1" xmlns="http://www.w3.org/2000/svg" xmlns:xlink="http://www.w3.org/1999/xlink" x="0px" y="0px" viewBox="0 0 1000 1000" enable-background="new 0 0 1000 1000" xml:space="preserve">
<metadata> Svg Vector Icons : http://www.onlinewebfonts.com/icon </metadata>
<g><path d="M500,2.3c171.6,0,310.7,139.1,310.7,310.7c0,128.8-78.4,239.4-190.1,286.4v0C810.2,646.8,956.7,802.9,990,997.7h-42.1c-17.2-92.1-62.1-174.4-125.7-238C739.8,677.2,625.8,626.2,500,626.2c-125.8,0-239.8,51-322.2,133.5c-63.6,63.6-108.5,145.9-125.7,238H10c33.3-194.8,179.8-350.9,369.4-398.1v0C267.7,552.4,189.3,441.9,189.3,313C189.3,141.4,328.4,2.3,500,2.3L500,2.3z M690.4,122.6c-48.7-48.7-116-78.9-190.4-78.9c-74.4,0-141.7,30.1-190.4,78.9c-48.7,48.7-78.9,116-78.9,190.4c0,74.4,30.1,141.7,78.9,190.4c48.7,48.7,116,78.9,190.4,78.9c74.4,0,141.7-30.1,190.4-78.9c48.7-48.7,78.9-116,78.9-190.4C769.3,238.7,739.1,171.4,690.4,122.6L690.4,122.6z"/></g>
</svg>